<svg xmlns="http://www.w3.org/2000/svg" viewBox="0 0 420.02 560"><defs><style>.cls-1{fill:#81e6d9;}.cls-2{fill:#f687b3;}</style></defs><g id="Warstwa_1" data-name="Warstwa 1"><rect class="cls-1" x="12.1" y="14.97" width="334.96" height="88.04" rx="31"/><rect class="cls-1" x="313.09" y="128.04" width="80.46" height="534.07" rx="40.23" transform="translate(119.86 -239.99) rotate(35.99)"/></g><g id="Warstwa_3" data-name="Warstwa 3"><rect class="cls-2" x="64.31" y="460.66" width="355.7" height="78.65" rx="31.7"/><rect class="cls-2" x="370.08" y="119.81" width="93.91" height="522.58" rx="46.96" transform="translate(123.81 -280.11) rotate(35.99)"/></g><g id="Warstwa_2" data-name="Warstwa 2"><path d="M593.41,602.18a20.79,20.79,0,0,1,6.4,15.2v28.8a21.86,21.86,0,0,1-21.6,21.6H205.41a21.86,21.86,0,0,1-21.6-21.6v-28.8q0-11.21,5.6-19.2t6.4-8.8l296.8-409.6H213.41a21.86,21.86,0,0,1-21.6-21.6v-28.8a21.86,21.86,0,0,1,21.6-21.6h356.8a21.86,21.86,0,0,1,21.6,21.6v28.8q0,12.8-10.4,26.4L283,595.78h295.2A20.78,20.78,0,0,1,593.41,602.18Z" transform="translate(-179.79 -107.78)"/></g></svg>