<svg id="Warstwa_1" data-name="Warstwa 1" xmlns="http://www.w3.org/2000/svg" viewBox="0 0 411.22 95.31"><defs><style>.cls-1{fill:none;stroke: currentColor;stroke-linecap:round;stroke-miterlimit:10;stroke-width:6px;}</style></defs><line class="cls-1" x1="118.39" y1="43.84" x2="408.22" y2="43.84"/><path d="M276.21,561.75a2.39,2.39,0,0,1-1.83-.72,2.51,2.51,0,0,1-.72-1.72,2.79,2.79,0,0,1,.75-1.95l13.25-16.56,3.1,4.11-12.6,16A2.28,2.28,0,0,1,276.21,561.75Zm28.51,0a3,3,0,0,1-1.4-.28,4,4,0,0,1-1.12-1l-12.45-15.84-2.16-1.87-12.53-15.92a2.72,2.72,0,0,1-.07-3.7,2.3,2.3,0,0,1,1.87-.76,2.89,2.89,0,0,1,2.09.86L291,538.71,293,540.3l13.39,17.13a2.84,2.84,0,0,1,.79,2.16,2.32,2.32,0,0,1-.9,1.59A2.54,2.54,0,0,1,304.72,561.75ZM293.06,543l-3.53-3.6L302,523.67a2.84,2.84,0,0,1,1.11-1,3,3,0,0,1,1.26-.29,2.34,2.34,0,0,1,1.88.76,2.55,2.55,0,0,1,.61,1.8,3.47,3.47,0,0,1-.76,2Z" transform="translate(-273.65 -494.55)"/><path d="M336.83,530.79a2.59,2.59,0,0,1-1.94-.82,2.88,2.88,0,0,1,0-4,2.6,2.6,0,0,1,1.94-.83h25.42a2.57,2.57,0,0,1,1.94.83,2.85,2.85,0,0,1,0,4,2.56,2.56,0,0,1-1.94.82Zm0,16.92a2.59,2.59,0,0,1-1.94-.82,2.78,2.78,0,0,1-.79-2,2.73,2.73,0,0,1,.79-2,2.64,2.64,0,0,1,1.94-.79h25.42a2.57,2.57,0,0,1,1.94.83,2.76,2.76,0,0,1,.8,2,2.65,2.65,0,0,1-.8,1.94,2.61,2.61,0,0,1-1.94.79Z" transform="translate(-273.65 -494.55)"/><path d="M474.51,521.34a13.58,13.58,0,0,1-6.86-1.73,12.53,12.53,0,0,1-4.75-4.75,14.59,14.59,0,0,1,0-13.78,12.46,12.46,0,0,1,4.75-4.75,14.43,14.43,0,0,1,13.7,0,12.54,12.54,0,0,1,4.73,4.75,14.16,14.16,0,0,1,1.78,6.91,13.46,13.46,0,0,1-1.76,6.87,12.81,12.81,0,0,1-4.75,4.75A13.48,13.48,0,0,1,474.51,521.34Zm0-3.36a9.69,9.69,0,0,0,5-1.3,9.22,9.22,0,0,0,3.46-3.55,10.49,10.49,0,0,0,1.25-5.14,10.59,10.59,0,0,0-1.25-5.16,9.14,9.14,0,0,0-3.46-3.57,10.23,10.23,0,0,0-10,0,9.33,9.33,0,0,0-3.48,3.57,11.08,11.08,0,0,0,0,10.3,9.41,9.41,0,0,0,3.48,3.55A9.69,9.69,0,0,0,474.51,518Z" transform="translate(-273.65 -494.55)"/><path d="M506.77,521.34a13,13,0,0,1-6.75-1.76,12.6,12.6,0,0,1-4.65-4.77,13.62,13.62,0,0,1-1.71-6.82,14.28,14.28,0,0,1,1.63-6.86,12.47,12.47,0,0,1,4.47-4.78,12.22,12.22,0,0,1,6.53-1.75,12.61,12.61,0,0,1,5.4,1.15,12.3,12.3,0,0,1,4.34,3.46,1.31,1.31,0,0,1,.38,1.22,1.87,1.87,0,0,1-.81,1.13,1.46,1.46,0,0,1-1.18.26,1.87,1.87,0,0,1-1.13-.69,8.93,8.93,0,0,0-7-3.17,8.57,8.57,0,0,0-4.73,1.3,8.67,8.67,0,0,0-3.17,3.55,11.45,11.45,0,0,0-1.13,5.18,10.8,10.8,0,0,0,1.2,5.14,9,9,0,0,0,3.36,3.55,9.47,9.47,0,0,0,4.95,1.3,11,11,0,0,0,3.43-.51,7.55,7.55,0,0,0,2.76-1.56,2.15,2.15,0,0,1,1.2-.53,1.58,1.58,0,0,1,1.15.39A1.9,1.9,0,0,1,516,517a1.3,1.3,0,0,1-.46,1.15A12.44,12.44,0,0,1,506.77,521.34Z" transform="translate(-273.65 -494.55)"/><path d="M535.52,521.34a13.68,13.68,0,0,1-6.89-1.71,12.14,12.14,0,0,1-4.7-4.73,13.78,13.78,0,0,1-1.71-6.91,14.47,14.47,0,0,1,1.61-6.93,12.11,12.11,0,0,1,4.44-4.73,12.3,12.3,0,0,1,6.53-1.73,11.92,11.92,0,0,1,6.36,1.66,11.21,11.21,0,0,1,4.2,4.58,14.55,14.55,0,0,1,1.49,6.67,1.63,1.63,0,0,1-.48,1.23,1.76,1.76,0,0,1-1.25.45h-20.4v-3.07H545.5l-2.06,1.49a11,11,0,0,0-1-5,8.17,8.17,0,0,0-3-3.46,8.41,8.41,0,0,0-4.63-1.25,8.76,8.76,0,0,0-4.8,1.3,8.63,8.63,0,0,0-3.19,3.57,11.5,11.5,0,0,0-1.13,5.21,10.39,10.39,0,0,0,1.27,5.19,9.49,9.49,0,0,0,3.48,3.55,9.9,9.9,0,0,0,5.09,1.29,10.45,10.45,0,0,0,3.48-.6,8.46,8.46,0,0,0,2.81-1.51,1.9,1.9,0,0,1,1.2-.45,1.65,1.65,0,0,1,1.15.36,1.81,1.81,0,0,1,.65,1.24,1.4,1.4,0,0,1-.56,1.16,13.07,13.07,0,0,1-4,2.23A13.82,13.82,0,0,1,535.52,521.34Z" transform="translate(-273.65 -494.55)"/><path d="M555,521.1a1.84,1.84,0,0,1-1.37-.51,1.76,1.76,0,0,1-.51-1.32V496.71a1.86,1.86,0,0,1,.51-1.37,1.88,1.88,0,0,1,1.37-.5,1.82,1.82,0,0,1,1.32.5,1.89,1.89,0,0,1,.5,1.37v22.56A1.73,1.73,0,0,1,555,521.1Zm20.64,0a1.85,1.85,0,0,1-1.35-.53,1.76,1.76,0,0,1-.52-1.3V506.79a9.56,9.56,0,0,0-1.13-4.89,7.22,7.22,0,0,0-3.07-2.88,9.81,9.81,0,0,0-4.4-1,9.62,9.62,0,0,0-4.24.91,7.54,7.54,0,0,0-3,2.49,6.14,6.14,0,0,0-1.11,3.6h-2.64a10.48,10.48,0,0,1,1.63-5.4,11,11,0,0,1,4.08-3.74,11.83,11.83,0,0,1,5.67-1.37,12.9,12.9,0,0,1,6.09,1.42,10.35,10.35,0,0,1,4.25,4.15,13.27,13.27,0,0,1,1.56,6.67v12.48a1.73,1.73,0,0,1-.53,1.3A1.76,1.76,0,0,1,575.6,521.1Z" transform="translate(-273.65 -494.55)"/><path d="M595.42,520.28a1.77,1.77,0,0,1-1.34.12,1.8,1.8,0,0,1-1-.94l-10.71-22.17a1.69,1.69,0,0,1-.09-1.35,1.8,1.8,0,0,1,1-1,1.77,1.77,0,0,1,1.34-.12,1.67,1.67,0,0,1,1,.94L596,518a1.92,1.92,0,0,1,.25,1.34A1.42,1.42,0,0,1,595.42,520.28Zm-5.33,12.24a2.32,2.32,0,0,1-.86-.19,1.54,1.54,0,0,1-.91-2.31l15.5-34.17a1.57,1.57,0,0,1,2.3-.87,1.49,1.49,0,0,1,.92,2.26l-15.56,34.18A1.52,1.52,0,0,1,590.09,532.52Z" transform="translate(-273.65 -494.55)"/><path d="M414.92,589.81a16.8,16.8,0,0,1-5.61-1,10.61,10.61,0,0,1-4.52-2.88,1.54,1.54,0,0,1-.43-1.29,2,2,0,0,1,.72-1.25,1.87,1.87,0,0,1,1.39-.38,1.9,1.9,0,0,1,1.2.62,7.36,7.36,0,0,0,3.05,2.06,11.79,11.79,0,0,0,4.2.72c2.37,0,4.08-.4,5.14-1.22a3.79,3.79,0,0,0,1.63-3,3.36,3.36,0,0,0-1.63-2.86,14,14,0,0,0-5.38-1.75q-4.85-.76-7.1-2.69a5.8,5.8,0,0,1-2.26-4.56,6.33,6.33,0,0,1,1.3-4.08,7.83,7.83,0,0,1,3.45-2.45,13.47,13.47,0,0,1,4.76-.81,12.91,12.91,0,0,1,5.54,1.1,10.19,10.19,0,0,1,3.77,3,1.64,1.64,0,0,1,.38,1.29,1.55,1.55,0,0,1-.77,1.11,2,2,0,0,1-1.32.21,2.17,2.17,0,0,1-1.27-.69,7.29,7.29,0,0,0-2.78-2,9.62,9.62,0,0,0-3.65-.65,7.35,7.35,0,0,0-4.22,1.08,3.19,3.19,0,0,0-1.59,2.71,3.14,3.14,0,0,0,.6,1.92,4.77,4.77,0,0,0,2.07,1.44,18.22,18.22,0,0,0,4.1,1.06,18.17,18.17,0,0,1,5.69,1.7,7.34,7.34,0,0,1,3,2.64,6.57,6.57,0,0,1-.43,7.25,8.59,8.59,0,0,1-3.65,2.66A13.73,13.73,0,0,1,414.92,589.81Z" transform="translate(-273.65 -494.55)"/><path d="M443.05,589.86a13,13,0,0,1-6.1-1.41,10.41,10.41,0,0,1-4.24-4.16,13.24,13.24,0,0,1-1.56-6.67V565.14a1.79,1.79,0,0,1,1.82-1.82,1.79,1.79,0,0,1,1.34.53,1.72,1.72,0,0,1,.53,1.29v12.48a9.58,9.58,0,0,0,1.13,4.9A7.22,7.22,0,0,0,439,585.4a10.45,10.45,0,0,0,8.64.05,7.48,7.48,0,0,0,3-2.5,6.14,6.14,0,0,0,1.11-3.6h2.64a10.7,10.7,0,0,1-5.72,9.14A11.65,11.65,0,0,1,443.05,589.86Zm10.56-.29a1.78,1.78,0,0,1-1.32-.5,1.84,1.84,0,0,1-.5-1.37V565.14a1.78,1.78,0,0,1,.5-1.32,1.82,1.82,0,0,1,1.32-.5,1.88,1.88,0,0,1,1.34.5,1.73,1.73,0,0,1,.53,1.32V587.7a1.78,1.78,0,0,1-.53,1.37A1.84,1.84,0,0,1,453.61,589.57Z" transform="translate(-273.65 -494.55)"/><path d="M466,589.57a1.81,1.81,0,0,1-1.36-.5,1.79,1.79,0,0,1-.51-1.32V565.19a1.85,1.85,0,0,1,.51-1.34,1.76,1.76,0,0,1,1.36-.53,1.7,1.7,0,0,1,1.32.53,1.85,1.85,0,0,1,.51,1.34v22.56a1.79,1.79,0,0,1-.51,1.32A1.75,1.75,0,0,1,466,589.57Zm16.85,0a1.84,1.84,0,0,1-1.34-.5,1.73,1.73,0,0,1-.53-1.32V573.93a7.76,7.76,0,0,0-1.78-5.4,5.82,5.82,0,0,0-4.56-2,6.57,6.57,0,0,0-4.89,2,6.88,6.88,0,0,0-1.92,5.06h-2.64a12.17,12.17,0,0,1,1.37-5.45A9.75,9.75,0,0,1,480,564.37a9.07,9.07,0,0,1,3.41,3.8,12.67,12.67,0,0,1,1.23,5.76v13.82a1.79,1.79,0,0,1-.51,1.32A1.75,1.75,0,0,1,482.84,589.57Zm16.75,0a1.84,1.84,0,0,1-1.34-.5,1.76,1.76,0,0,1-.53-1.32V573.93a7.81,7.81,0,0,0-1.77-5.4,5.85,5.85,0,0,0-4.56-2,6.44,6.44,0,0,0-4.88,2,7.17,7.17,0,0,0-1.84,5.3h-3.32a11.88,11.88,0,0,1,1.4-5.66,9.51,9.51,0,0,1,3.69-3.8,10.6,10.6,0,0,1,5.33-1.34,9.45,9.45,0,0,1,5,1.34,9.11,9.11,0,0,1,3.4,3.8,12.67,12.67,0,0,1,1.23,5.76v13.82a1.79,1.79,0,0,1-.51,1.32A1.75,1.75,0,0,1,499.59,589.57Z" transform="translate(-273.65 -494.55)"/><path d="M521.14,589.81a12.62,12.62,0,0,1-6.62-1.75,12.77,12.77,0,0,1-4.63-4.77,13.62,13.62,0,0,1-1.7-6.82,13.39,13.39,0,0,1,1.75-6.86,12.87,12.87,0,0,1,4.77-4.78,13.34,13.34,0,0,1,6.82-1.75,13.18,13.18,0,0,1,6.79,1.75,13,13,0,0,1,4.75,4.78,13.72,13.72,0,0,1,1.8,6.86l-1.49,1.15a12,12,0,0,1-12.24,12.19Zm.39-3.36a9.62,9.62,0,0,0,5-1.29,9.5,9.5,0,0,0,3.45-3.58,11,11,0,0,0,0-10.25,9.69,9.69,0,0,0-3.45-3.57,10,10,0,0,0-9.92,0,9.74,9.74,0,0,0-3.5,3.57,10.75,10.75,0,0,0,0,10.25,9.55,9.55,0,0,0,3.5,3.58A9.67,9.67,0,0,0,521.53,586.45ZM533,589.57a1.84,1.84,0,0,1-1.34-.5,1.73,1.73,0,0,1-.53-1.32v-8.21l.91-3.79,2.83.72v11.28a1.73,1.73,0,0,1-.53,1.32A1.84,1.84,0,0,1,533,589.57Z" transform="translate(-273.65 -494.55)"/><path d="M568.09,589.81a13.64,13.64,0,0,1-6.87-1.72,12.62,12.62,0,0,1-4.75-4.76,14.57,14.57,0,0,1,0-13.77,12.53,12.53,0,0,1,4.75-4.75,13.54,13.54,0,0,1,6.87-1.73,13.38,13.38,0,0,1,6.84,1.73,12.61,12.61,0,0,1,4.73,4.75,14,14,0,0,1,1.77,6.91,13.39,13.39,0,0,1-1.75,6.86,12.84,12.84,0,0,1-4.75,4.76A13.47,13.47,0,0,1,568.09,589.81Zm0-3.36a9.71,9.71,0,0,0,5-1.29,9.36,9.36,0,0,0,3.46-3.55,11.31,11.31,0,0,0,0-10.3,9.3,9.3,0,0,0-3.46-3.58,10.3,10.3,0,0,0-10,0,9.28,9.28,0,0,0-3.48,3.58,11,11,0,0,0,0,10.3,9.34,9.34,0,0,0,3.48,3.55A9.69,9.69,0,0,0,568.09,586.45Z" transform="translate(-273.65 -494.55)"/><path d="M600.34,589.81a13,13,0,0,1-6.74-1.75,12.78,12.78,0,0,1-4.66-4.77,13.72,13.72,0,0,1-1.7-6.82,14.16,14.16,0,0,1,1.63-6.86,12.47,12.47,0,0,1,4.47-4.78,12.1,12.1,0,0,1,6.52-1.75,12.54,12.54,0,0,1,5.4,1.15,12.25,12.25,0,0,1,4.35,3.46,1.31,1.31,0,0,1,.38,1.22,1.91,1.91,0,0,1-.81,1.13,1.51,1.51,0,0,1-1.18.26,1.92,1.92,0,0,1-1.13-.69,8.9,8.9,0,0,0-7-3.17,8.63,8.63,0,0,0-4.72,1.29,8.76,8.76,0,0,0-3.17,3.56,11.32,11.32,0,0,0-1.13,5.18,10.8,10.8,0,0,0,1.2,5.14,9,9,0,0,0,3.36,3.55,9.46,9.46,0,0,0,4.94,1.29,11,11,0,0,0,3.44-.5,7.85,7.85,0,0,0,2.76-1.56,2.09,2.09,0,0,1,1.2-.53,1.58,1.58,0,0,1,1.15.39,1.9,1.9,0,0,1,.65,1.2,1.33,1.33,0,0,1-.46,1.15A12.46,12.46,0,0,1,600.34,589.81Z" transform="translate(-273.65 -494.55)"/><path d="M629.09,589.81a13.63,13.63,0,0,1-6.88-1.7,12.3,12.3,0,0,1-4.71-4.73,13.88,13.88,0,0,1-1.7-6.91,14.4,14.4,0,0,1,1.61-6.94,12,12,0,0,1,11-6.45,12,12,0,0,1,6.36,1.65,11.37,11.37,0,0,1,4.2,4.59,14.52,14.52,0,0,1,1.48,6.67,1.6,1.6,0,0,1-.48,1.22,1.7,1.7,0,0,1-1.24.46H618.29V574.6h20.79L637,576.09a11,11,0,0,0-1-5,8.28,8.28,0,0,0-3-3.45,8.41,8.41,0,0,0-4.63-1.25,8.76,8.76,0,0,0-4.8,1.3,8.59,8.59,0,0,0-3.2,3.57,11.64,11.64,0,0,0-1.13,5.21,10.33,10.33,0,0,0,1.28,5.18,9.44,9.44,0,0,0,3.48,3.56,9.86,9.86,0,0,0,5.08,1.29,10.72,10.72,0,0,0,3.49-.6,8.4,8.4,0,0,0,2.8-1.51,2,2,0,0,1,1.2-.46,1.69,1.69,0,0,1,1.8,1.61,1.36,1.36,0,0,1-.55,1.15,13.08,13.08,0,0,1-4,2.24A13.8,13.8,0,0,1,629.09,589.81Z" transform="translate(-273.65 -494.55)"/><path d="M648.54,589.57a1.82,1.82,0,0,1-1.37-.5,1.79,1.79,0,0,1-.51-1.32V565.19a1.74,1.74,0,0,1,1.88-1.87,1.78,1.78,0,0,1,1.31.5,1.84,1.84,0,0,1,.51,1.37v22.56a1.79,1.79,0,0,1-.51,1.32A1.74,1.74,0,0,1,648.54,589.57Zm20.63,0a1.82,1.82,0,0,1-1.34-.52,1.8,1.8,0,0,1-.53-1.3V575.27a9.5,9.5,0,0,0-1.13-4.9,7.16,7.16,0,0,0-3.07-2.88,10.4,10.4,0,0,0-8.64,0,7.59,7.59,0,0,0-3,2.49,6.2,6.2,0,0,0-1.1,3.6h-2.64a10.39,10.39,0,0,1,1.63-5.4,11,11,0,0,1,4.08-3.74,11.79,11.79,0,0,1,5.66-1.37,12.8,12.8,0,0,1,6.1,1.42,10.35,10.35,0,0,1,4.25,4.15,13.27,13.27,0,0,1,1.56,6.67v12.48a1.8,1.8,0,0,1-.53,1.3A1.76,1.76,0,0,1,669.17,589.57Z" transform="translate(-273.65 -494.55)"/></svg>