<svg id="Warstwa_1" fill='currentColor' data-name="Warstwa 1" xmlns="http://www.w3.org/2000/svg" viewBox="0 0 411.22 95.52"><line x1="118.39" y1="45.27" x2="408.22" y2="45.27" fill="none" stroke="currentColor" stroke-linecap="round" stroke-miterlimit="10" stroke-width="6"/><path d="M276.21,561.75a2.39,2.39,0,0,1-1.83-.72,2.51,2.51,0,0,1-.72-1.72,2.79,2.79,0,0,1,.75-1.95l13.25-16.56,3.1,4.11-12.6,16A2.28,2.28,0,0,1,276.21,561.75Zm28.51,0a3,3,0,0,1-1.4-.28,4,4,0,0,1-1.12-1l-12.45-15.84-2.16-1.87-12.53-15.92a2.72,2.72,0,0,1-.07-3.7,2.3,2.3,0,0,1,1.87-.76,2.89,2.89,0,0,1,2.09.86L291,538.71,293,540.3l13.39,17.13a2.84,2.84,0,0,1,.79,2.16,2.32,2.32,0,0,1-.9,1.59A2.54,2.54,0,0,1,304.72,561.75ZM293.06,543l-3.53-3.6L302,523.67a2.84,2.84,0,0,1,1.11-1,3,3,0,0,1,1.26-.29,2.34,2.34,0,0,1,1.88.76,2.55,2.55,0,0,1,.61,1.8,3.47,3.47,0,0,1-.76,2Z" transform="translate(-273.65 -493.12)"/><path d="M336.83,530.79a2.59,2.59,0,0,1-1.94-.82,2.88,2.88,0,0,1,0-4,2.6,2.6,0,0,1,1.94-.83h25.42a2.57,2.57,0,0,1,1.94.83,2.85,2.85,0,0,1,0,4,2.56,2.56,0,0,1-1.94.82Zm0,16.92a2.59,2.59,0,0,1-1.94-.82,2.78,2.78,0,0,1-.79-2,2.73,2.73,0,0,1,.79-2,2.64,2.64,0,0,1,1.94-.79h25.42a2.57,2.57,0,0,1,1.94.83,2.76,2.76,0,0,1,.8,2,2.65,2.65,0,0,1-.8,1.94,2.61,2.61,0,0,1-1.94.79Z" transform="translate(-273.65 -493.12)"/><path d="M416.3,557.15a2.46,2.46,0,0,1-1.82-.77,2.54,2.54,0,0,1-.77-1.87,2.4,2.4,0,0,1,.79-1.89,2.7,2.7,0,0,1,1.85-.7,2.63,2.63,0,0,1,1.8.7,2.37,2.37,0,0,1,.79,1.89,2.61,2.61,0,0,1-2.64,2.64Zm.05,31.25a1.73,1.73,0,0,1-1.87-1.87V564a1.74,1.74,0,0,1,1.87-1.88,1.77,1.77,0,0,1,1.32.51,1.83,1.83,0,0,1,.51,1.37v22.51a1.86,1.86,0,0,1-.51,1.37A1.8,1.8,0,0,1,416.35,588.4Z" transform="translate(-273.65 -493.12)"/><path d="M433.25,588.4a5.84,5.84,0,0,1-3.44-1.06,7,7,0,0,1-2.35-2.92,10.47,10.47,0,0,1-.84-4.32V552.74a1.75,1.75,0,0,1,1.83-1.83,1.73,1.73,0,0,1,1.82,1.83V580.1a6.11,6.11,0,0,0,.84,3.36,2.48,2.48,0,0,0,2.14,1.29h1.2a1.43,1.43,0,0,1,1.15.51,1.93,1.93,0,0,1,.43,1.32,1.65,1.65,0,0,1-.6,1.32,2.37,2.37,0,0,1-1.56.5Z" transform="translate(-273.65 -493.12)"/><path d="M451.63,588.64a13.58,13.58,0,0,1-6.86-1.73,12.55,12.55,0,0,1-4.76-4.75,14.66,14.66,0,0,1,0-13.78,12.62,12.62,0,0,1,4.76-4.75,14.43,14.43,0,0,1,13.7,0,12.61,12.61,0,0,1,4.73,4.75A14.06,14.06,0,0,1,465,575.3a13.41,13.41,0,0,1-1.75,6.86,12.74,12.74,0,0,1-4.75,4.75A13.48,13.48,0,0,1,451.63,588.64Zm0-3.36a9.6,9.6,0,0,0,5-1.3,9.15,9.15,0,0,0,3.46-3.55,10.42,10.42,0,0,0,1.25-5.13,10.59,10.59,0,0,0-1.25-5.16,9.16,9.16,0,0,0-3.46-3.58,10.23,10.23,0,0,0-10,0,9.35,9.35,0,0,0-3.48,3.58,10.39,10.39,0,0,0-1.27,5.16,10.22,10.22,0,0,0,1.27,5.13,9.34,9.34,0,0,0,3.48,3.55A9.6,9.6,0,0,0,451.63,585.28Z" transform="translate(-273.65 -493.12)"/><path d="M481.34,588.64a17.05,17.05,0,0,1-5.61-1,10.61,10.61,0,0,1-4.52-2.88,1.56,1.56,0,0,1-.43-1.3,2,2,0,0,1,.72-1.24,1.89,1.89,0,0,1,2.59.24,7.46,7.46,0,0,0,3.05,2.06,11.79,11.79,0,0,0,4.2.72q3.56,0,5.14-1.22a3.79,3.79,0,0,0,1.63-3,3.37,3.37,0,0,0-1.63-2.85,13.82,13.82,0,0,0-5.38-1.75c-3.23-.52-5.6-1.41-7.1-2.69a5.8,5.8,0,0,1-2.26-4.56,6.33,6.33,0,0,1,1.3-4.08,7.75,7.75,0,0,1,3.45-2.45,13.47,13.47,0,0,1,4.76-.82,12.76,12.76,0,0,1,5.54,1.11,10.27,10.27,0,0,1,3.77,3,1.67,1.67,0,0,1,.38,1.3,1.52,1.52,0,0,1-.77,1.1,1.89,1.89,0,0,1-1.32.22,2.13,2.13,0,0,1-1.27-.7,7.51,7.51,0,0,0-2.78-2,9.66,9.66,0,0,0-3.65-.64,7.35,7.35,0,0,0-4.22,1.08,3.2,3.2,0,0,0-1,4.63,4.94,4.94,0,0,0,2.07,1.44,18.3,18.3,0,0,0,4.1,1,18.42,18.42,0,0,1,5.69,1.71,7.34,7.34,0,0,1,3,2.64,6.57,6.57,0,0,1-.43,7.25,8.67,8.67,0,0,1-3.65,2.66A13.92,13.92,0,0,1,481.34,588.64Z" transform="translate(-273.65 -493.12)"/><path d="M509.76,588.64a13,13,0,0,1-6.75-1.75,12.63,12.63,0,0,1-4.65-4.78,13.59,13.59,0,0,1-1.71-6.81,14.35,14.35,0,0,1,1.63-6.87,12.45,12.45,0,0,1,4.47-4.77,12.14,12.14,0,0,1,6.53-1.76,12.61,12.61,0,0,1,5.4,1.16,12.27,12.27,0,0,1,4.34,3.45,1.36,1.36,0,0,1,.39,1.23,1.91,1.91,0,0,1-.82,1.12,1.46,1.46,0,0,1-1.18.27,1.84,1.84,0,0,1-1.12-.7,9,9,0,0,0-7-3.17,8.54,8.54,0,0,0-7.9,4.85,11.49,11.49,0,0,0-1.13,5.19,10.73,10.73,0,0,0,1.2,5.13,8.91,8.91,0,0,0,3.36,3.55,9.38,9.38,0,0,0,4.95,1.3,11.32,11.32,0,0,0,3.43-.5,7.85,7.85,0,0,0,2.76-1.56,2.09,2.09,0,0,1,1.2-.53,1.57,1.57,0,0,1,1.15.38,1.9,1.9,0,0,1,.65,1.2,1.3,1.3,0,0,1-.46,1.15A12.39,12.39,0,0,1,509.76,588.64Z" transform="translate(-273.65 -493.12)"/><path d="M552.62,588.64a13.58,13.58,0,0,1-6.86-1.73,12.55,12.55,0,0,1-4.76-4.75,14.66,14.66,0,0,1,0-13.78,12.62,12.62,0,0,1,4.76-4.75,14.43,14.43,0,0,1,13.7,0,12.61,12.61,0,0,1,4.73,4.75A14.06,14.06,0,0,1,566,575.3a13.41,13.41,0,0,1-1.75,6.86,12.74,12.74,0,0,1-4.75,4.75A13.48,13.48,0,0,1,552.62,588.64Zm0-3.36a9.6,9.6,0,0,0,5-1.3,9.15,9.15,0,0,0,3.46-3.55,10.42,10.42,0,0,0,1.25-5.13,10.59,10.59,0,0,0-1.25-5.16,9.16,9.16,0,0,0-3.46-3.58,10.23,10.23,0,0,0-10,0,9.35,9.35,0,0,0-3.48,3.58,10.39,10.39,0,0,0-1.27,5.16,10.22,10.22,0,0,0,1.27,5.13,9.34,9.34,0,0,0,3.48,3.55A9.6,9.6,0,0,0,552.62,585.28Z" transform="translate(-273.65 -493.12)"/><path d="M584.88,588.64a13,13,0,0,1-6.75-1.75,12.63,12.63,0,0,1-4.65-4.78,13.59,13.59,0,0,1-1.71-6.81,14.35,14.35,0,0,1,1.63-6.87,12.45,12.45,0,0,1,4.47-4.77,12.14,12.14,0,0,1,6.53-1.76,12.61,12.61,0,0,1,5.4,1.16,12.27,12.27,0,0,1,4.34,3.45,1.32,1.32,0,0,1,.38,1.23,1.85,1.85,0,0,1-.81,1.12,1.46,1.46,0,0,1-1.18.27,1.89,1.89,0,0,1-1.13-.7,8.93,8.93,0,0,0-7-3.17,8.54,8.54,0,0,0-7.9,4.85,11.49,11.49,0,0,0-1.13,5.19,10.73,10.73,0,0,0,1.2,5.13,8.91,8.91,0,0,0,3.36,3.55,9.38,9.38,0,0,0,5,1.3,11.32,11.32,0,0,0,3.43-.5,7.85,7.85,0,0,0,2.76-1.56,2.09,2.09,0,0,1,1.2-.53,1.57,1.57,0,0,1,1.15.38,1.9,1.9,0,0,1,.65,1.2,1.3,1.3,0,0,1-.46,1.15A12.39,12.39,0,0,1,584.88,588.64Z" transform="translate(-273.65 -493.12)"/><path d="M613.63,588.64a13.77,13.77,0,0,1-6.89-1.7,12.28,12.28,0,0,1-4.7-4.73,13.8,13.8,0,0,1-1.71-6.91,14.48,14.48,0,0,1,1.61-6.94,12.11,12.11,0,0,1,4.44-4.73,12.3,12.3,0,0,1,6.53-1.73,12,12,0,0,1,6.36,1.66,11.14,11.14,0,0,1,4.2,4.58,14.59,14.59,0,0,1,1.49,6.68,1.6,1.6,0,0,1-.48,1.22,1.77,1.77,0,0,1-1.25.46h-20.4v-3.08h20.78l-2.06,1.49a11.06,11.06,0,0,0-1-5,8.23,8.23,0,0,0-3-3.46,8.41,8.41,0,0,0-4.63-1.24,8.84,8.84,0,0,0-4.8,1.29,8.66,8.66,0,0,0-3.19,3.58,11.47,11.47,0,0,0-1.13,5.21,10.33,10.33,0,0,0,1.27,5.18,9.41,9.41,0,0,0,3.48,3.55,9.81,9.81,0,0,0,5.09,1.3,10.71,10.71,0,0,0,3.48-.6,8.64,8.64,0,0,0,2.81-1.51,2,2,0,0,1,1.2-.46,1.65,1.65,0,0,1,1.15.36,1.81,1.81,0,0,1,.65,1.25,1.39,1.39,0,0,1-.56,1.15,12.87,12.87,0,0,1-4,2.23A13.82,13.82,0,0,1,613.63,588.64Z" transform="translate(-273.65 -493.12)"/><path d="M633.07,588.4a1.88,1.88,0,0,1-1.37-.5,1.78,1.78,0,0,1-.5-1.32V564a1.82,1.82,0,0,1,.5-1.37,1.84,1.84,0,0,1,1.37-.51,1.79,1.79,0,0,1,1.32.51,1.86,1.86,0,0,1,.5,1.37v22.56a1.72,1.72,0,0,1-1.82,1.82Zm20.64,0a1.83,1.83,0,0,1-1.35-.53,1.76,1.76,0,0,1-.53-1.29V574.1a9.58,9.58,0,0,0-1.12-4.9,7.19,7.19,0,0,0-3.08-2.88,10.43,10.43,0,0,0-8.63-.05,7.48,7.48,0,0,0-3,2.5,6.09,6.09,0,0,0-1.11,3.6h-2.64a10.33,10.33,0,0,1,1.63-5.4,11.07,11.07,0,0,1,4.08-3.75,11.82,11.82,0,0,1,5.67-1.36,12.9,12.9,0,0,1,6.09,1.41,10.47,10.47,0,0,1,4.25,4.15,13.31,13.31,0,0,1,1.56,6.68v12.48a1.81,1.81,0,0,1-1.82,1.82Z" transform="translate(-273.65 -493.12)"/><path d="M412.57,519.9a17.1,17.1,0,0,1-5.61-1,10.52,10.52,0,0,1-4.51-2.88,1.49,1.49,0,0,1-.43-1.3,1.9,1.9,0,0,1,2.11-1.63,2,2,0,0,1,1.2.63,7.33,7.33,0,0,0,3.05,2.06,11.7,11.7,0,0,0,4.19.72q3.56,0,5.14-1.22a3.76,3.76,0,0,0,1.63-3,3.35,3.35,0,0,0-1.63-2.86,13.82,13.82,0,0,0-5.38-1.75q-4.84-.76-7.1-2.69a5.82,5.82,0,0,1-2.25-4.56,6.38,6.38,0,0,1,1.29-4.08,7.86,7.86,0,0,1,3.46-2.45,13.42,13.42,0,0,1,4.75-.81,12.76,12.76,0,0,1,5.54,1.1,10.19,10.19,0,0,1,3.77,3,1.63,1.63,0,0,1,.38,1.29,1.57,1.57,0,0,1-.76,1.11,2,2,0,0,1-1.32.21,2.19,2.19,0,0,1-1.28-.69,7.35,7.35,0,0,0-2.78-2.05,9.59,9.59,0,0,0-3.65-.64,7.35,7.35,0,0,0-4.22,1.08,3.19,3.19,0,0,0-1.59,2.71,3.14,3.14,0,0,0,.6,1.92,4.94,4.94,0,0,0,2.07,1.44,18.78,18.78,0,0,0,4.1,1.06,18.17,18.17,0,0,1,5.69,1.7,7.44,7.44,0,0,1,3,2.64,6.4,6.4,0,0,1,.89,3.29,6.31,6.31,0,0,1-1.33,4,8.7,8.7,0,0,1-3.64,2.66A14,14,0,0,1,412.57,519.9Z" transform="translate(-273.65 -493.12)"/><path d="M440.7,520a12.79,12.79,0,0,1-6.09-1.42,10.29,10.29,0,0,1-4.25-4.15,13.27,13.27,0,0,1-1.56-6.67V495.23a1.79,1.79,0,0,1,1.82-1.82,1.84,1.84,0,0,1,1.35.52,1.79,1.79,0,0,1,.52,1.3v12.48a9.6,9.6,0,0,0,1.13,4.9,7.22,7.22,0,0,0,3.07,2.88,9.81,9.81,0,0,0,4.4,1,9.63,9.63,0,0,0,4.24-.92,7.46,7.46,0,0,0,3-2.49,6.14,6.14,0,0,0,1.11-3.6h2.64a10.72,10.72,0,0,1-5.71,9.14A11.83,11.83,0,0,1,440.7,520Zm10.56-.29a1.82,1.82,0,0,1-1.32-.5,1.88,1.88,0,0,1-.5-1.37V495.23a1.82,1.82,0,0,1,.5-1.32,1.78,1.78,0,0,1,1.32-.5,1.87,1.87,0,0,1,1.35.5,1.76,1.76,0,0,1,.52,1.32v22.56a1.81,1.81,0,0,1-.52,1.37A1.91,1.91,0,0,1,451.26,519.66Z" transform="translate(-273.65 -493.12)"/><path d="M463.65,519.66a1.86,1.86,0,0,1-1.37-.5,1.79,1.79,0,0,1-.51-1.32V495.28a1.87,1.87,0,0,1,.51-1.35,1.79,1.79,0,0,1,1.37-.52,1.76,1.76,0,0,1,1.32.52,1.91,1.91,0,0,1,.5,1.35v22.56a1.72,1.72,0,0,1-1.82,1.82Zm16.84,0a1.88,1.88,0,0,1-1.34-.5,1.76,1.76,0,0,1-.53-1.32V504a7.84,7.84,0,0,0-1.77-5.4,5.87,5.87,0,0,0-4.56-2,6.58,6.58,0,0,0-4.9,1.95,6.88,6.88,0,0,0-1.92,5.06h-2.64a12.1,12.1,0,0,1,1.37-5.45,9.76,9.76,0,0,1,13.49-3.72,9.14,9.14,0,0,1,3.4,3.79,12.67,12.67,0,0,1,1.23,5.76v13.83a1.73,1.73,0,0,1-1.83,1.82Zm16.76,0a1.89,1.89,0,0,1-1.35-.5,1.76,1.76,0,0,1-.53-1.32V504a7.84,7.84,0,0,0-1.77-5.4,5.87,5.87,0,0,0-4.56-2,6.44,6.44,0,0,0-4.87,2,7.17,7.17,0,0,0-1.85,5.31H479a12,12,0,0,1,1.4-5.67,9.55,9.55,0,0,1,3.69-3.79,10.63,10.63,0,0,1,5.33-1.34,9.45,9.45,0,0,1,5,1.34,9.23,9.23,0,0,1,3.41,3.79,12.8,12.8,0,0,1,1.22,5.76v13.83a1.73,1.73,0,0,1-1.82,1.82Z" transform="translate(-273.65 -493.12)"/><path d="M518.8,519.9a12.63,12.63,0,0,1-6.63-1.75,12.8,12.8,0,0,1-4.63-4.78,14.42,14.42,0,0,1,0-13.68,13,13,0,0,1,4.77-4.77,13.34,13.34,0,0,1,6.82-1.75,13.18,13.18,0,0,1,6.79,1.75,12.94,12.94,0,0,1,4.75,4.77,13.9,13.9,0,0,1,1.81,6.87L531,507.71a12.13,12.13,0,0,1-1.61,6.21,11.82,11.82,0,0,1-4.37,4.37A12.14,12.14,0,0,1,518.8,519.9Zm.38-3.36a9.59,9.59,0,0,0,5-1.29,9.42,9.42,0,0,0,3.45-3.58,10.9,10.9,0,0,0,0-10.25,9.71,9.71,0,0,0-3.45-3.58,10,10,0,0,0-9.91,0,9.87,9.87,0,0,0-3.51,3.58,10.83,10.83,0,0,0,0,10.25,9.49,9.49,0,0,0,8.45,4.87Zm11.47,3.12a1.88,1.88,0,0,1-1.34-.5,1.76,1.76,0,0,1-.53-1.32v-8.21l.91-3.79,2.84.72v11.28a1.76,1.76,0,0,1-.53,1.32A1.91,1.91,0,0,1,530.65,519.66Z" transform="translate(-273.65 -493.12)"/><path d="M565.74,519.9a13.48,13.48,0,0,1-6.86-1.73,12.55,12.55,0,0,1-4.76-4.75,14.64,14.64,0,0,1,0-13.77,12.58,12.58,0,0,1,4.76-4.76,14.5,14.5,0,0,1,13.7,0,12.57,12.57,0,0,1,4.73,4.76,14,14,0,0,1,1.77,6.91,13.39,13.39,0,0,1-1.75,6.86,12.74,12.74,0,0,1-4.75,4.75A13.38,13.38,0,0,1,565.74,519.9Zm0-3.36a9.69,9.69,0,0,0,5-1.29,9.25,9.25,0,0,0,3.46-3.56,10.42,10.42,0,0,0,1.25-5.13,10.59,10.59,0,0,0-1.25-5.16,9.23,9.23,0,0,0-3.46-3.58,10.3,10.3,0,0,0-10,0,9.42,9.42,0,0,0-3.48,3.58,10.39,10.39,0,0,0-1.27,5.16,10.22,10.22,0,0,0,1.27,5.13,9.44,9.44,0,0,0,3.48,3.56A9.69,9.69,0,0,0,565.74,516.54Z" transform="translate(-273.65 -493.12)"/><path d="M598,519.9a13,13,0,0,1-6.75-1.75,12.63,12.63,0,0,1-4.65-4.78,13.59,13.59,0,0,1-1.71-6.81,14.35,14.35,0,0,1,1.63-6.87,12.52,12.52,0,0,1,4.47-4.77,12.13,12.13,0,0,1,6.53-1.75,12.61,12.61,0,0,1,5.4,1.15,12.27,12.27,0,0,1,4.34,3.45,1.33,1.33,0,0,1,.38,1.23,1.82,1.82,0,0,1-.81,1.12,1.46,1.46,0,0,1-1.18.27,1.89,1.89,0,0,1-1.13-.7,8.92,8.92,0,0,0-7-3.16,8.64,8.64,0,0,0-4.73,1.29,8.8,8.8,0,0,0-3.17,3.55,11.52,11.52,0,0,0-1.13,5.19,10.73,10.73,0,0,0,1.2,5.13,9,9,0,0,0,3.36,3.56,9.47,9.47,0,0,0,5,1.29,11.32,11.32,0,0,0,3.43-.5,7.85,7.85,0,0,0,2.76-1.56,2.09,2.09,0,0,1,1.2-.53,1.57,1.57,0,0,1,1.15.38,1.92,1.92,0,0,1,.65,1.2,1.32,1.32,0,0,1-.46,1.16A12.43,12.43,0,0,1,598,519.9Z" transform="translate(-273.65 -493.12)"/><path d="M626.75,519.9a13.77,13.77,0,0,1-6.89-1.7,12.21,12.21,0,0,1-4.7-4.73,13.8,13.8,0,0,1-1.71-6.91,14.48,14.48,0,0,1,1.61-6.94,12.11,12.11,0,0,1,4.44-4.73,12.29,12.29,0,0,1,6.53-1.72,12,12,0,0,1,6.36,1.65,11.17,11.17,0,0,1,4.2,4.59,14.52,14.52,0,0,1,1.49,6.67,1.6,1.6,0,0,1-.48,1.22,1.72,1.72,0,0,1-1.25.46H616v-3.07h20.78l-2.06,1.48a11.06,11.06,0,0,0-1-5,8.15,8.15,0,0,0-3-3.45,8.33,8.33,0,0,0-4.63-1.25,8.84,8.84,0,0,0-4.8,1.29,8.66,8.66,0,0,0-3.19,3.58,11.5,11.5,0,0,0-1.13,5.21,10.33,10.33,0,0,0,1.27,5.18,9.34,9.34,0,0,0,3.48,3.55,9.81,9.81,0,0,0,5.09,1.3,10.71,10.71,0,0,0,3.48-.6,8.64,8.64,0,0,0,2.81-1.51,2,2,0,0,1,1.2-.46,1.7,1.7,0,0,1,1.15.36,1.81,1.81,0,0,1,.65,1.25,1.39,1.39,0,0,1-.56,1.15,12.87,12.87,0,0,1-4,2.23A13.58,13.58,0,0,1,626.75,519.9Z" transform="translate(-273.65 -493.12)"/><path d="M646.19,519.66a1.88,1.88,0,0,1-1.37-.5,1.78,1.78,0,0,1-.5-1.32V495.28a1.73,1.73,0,0,1,1.87-1.87,1.78,1.78,0,0,1,1.32.5,1.88,1.88,0,0,1,.5,1.37v22.56a1.72,1.72,0,0,1-1.82,1.82Zm20.64,0a1.79,1.79,0,0,1-1.35-.53,1.75,1.75,0,0,1-.52-1.29V505.36a9.58,9.58,0,0,0-1.13-4.9,7.19,7.19,0,0,0-3.08-2.88,10.43,10.43,0,0,0-8.63-.05,7.48,7.48,0,0,0-3,2.5,6.12,6.12,0,0,0-1.11,3.6h-2.64a10.33,10.33,0,0,1,1.63-5.4,11,11,0,0,1,4.08-3.74,11.71,11.71,0,0,1,5.67-1.37,12.9,12.9,0,0,1,6.09,1.41,10.44,10.44,0,0,1,4.25,4.16,13.24,13.24,0,0,1,1.56,6.67v12.48a1.76,1.76,0,0,1-.53,1.29A1.72,1.72,0,0,1,666.83,519.66Z" transform="translate(-273.65 -493.12)"/></svg>